<?xml version="1.0" encoding="UTF-8"?>
<svg width="266px" height="135px" viewBox="0 0 266 135" version="1.1" xmlns="http://www.w3.org/2000/svg" xmlns:xlink="http://www.w3.org/1999/xlink">
    <title>Tarjetas Logo Copy 4</title>
    <g id="Tarjetas-Logo-Copy-4" stroke="none" stroke-width="1" fill="none" fill-rule="evenodd">
        <g id="Logo-Teknei-Copy" transform="translate(13.000000, 3.000000)">
            <circle id="Oval" fill="#006EC9" cx="176" cy="65" r="65"></circle>
            <path d="M224.545455,44.8406677 L224.545455,90 L219.558442,90 L219.558442,44.8406677 L224.545455,44.8406677 Z M222.051948,28 C224.337662,28 226,29.7875569 226,31.9514416 C226,34.0212443 224.441558,35.8088012 221.948052,35.8088012 L221.844156,35.8088012 C219.558442,35.8088012 218,34.0212443 218,31.9514416 C218,29.8816388 219.766234,28 222.051948,28 Z" id="i" fill="#FFFFFF"></path>
            <path d="M191.367246,44 C206.171216,44 209,57.8842315 209,64.3572854 C209,65.5768463 209,66.2335329 208.811414,67.0778443 L175.431762,67.0778443 C175.431762,81.4311377 183.352357,87.1536926 192.687345,87.1536926 C199.287841,87.1536926 202.682382,85.8403194 205.228288,84.6207585 L206.359801,88.0918164 C204.662531,89.0299401 200.042184,91 192.121588,91 C179.109181,91 171,81.6187625 171,68.3912176 C171,53.3812375 179.674938,44 191.367246,44 Z M190.801489,47.752495 C180.806452,47.752495 176.563275,56.5708583 175.71464,63.5129741 L204.28536,63.5129741 C204.379653,57.2275449 201.739454,47.752495 190.801489,47.752495 Z" id="e" fill="#FFFFFF"></path>
            <path d="M123.375979,90 L123.375979,55.0610998 C123.375979,50.8492872 123.281984,47.6904277 123,44.0529532 L127.229765,44.0529532 L127.511749,52.2851324 L127.699739,52.2851324 C130.143603,47.1160896 135.877285,43 143.208877,43 C147.532637,43 159,45.2016293 159,62.4317719 L159,90 L154.488251,90 L154.488251,62.814664 C154.488251,54.3910387 151.292428,46.8289206 141.986945,46.8289206 C135.689295,46.8289206 130.237598,51.4236253 128.451697,57.4541752 C128.169713,58.5071283 127.887728,60.0386965 127.887728,61.4745418 L127.887728,90 L123.375979,90 Z" id="n" fill="#FFFFFF"></path>
            <path d="M85.5128205,23 L85.5128205,66.535865 L85.7008547,66.535865 C86.8290598,65.1223629 88.6153846,63.0492264 90.025641,61.5414909 L106.008547,44.7679325 L111.461538,44.7679325 L93.2222222,63.5203938 L114,90 L108.547009,90 L90.1196581,66.2531646 L85.5128205,71.1533052 L85.5128205,90 L81,90 L81,23 L85.5128205,23 Z" id="k" fill="#000000"></path>
            <path d="M52.3672457,44 C67.1712159,44 70,57.8842315 70,64.3572854 C70,65.5768463 70,66.2335329 69.8114144,67.0778443 L36.4317618,67.0778443 C36.4317618,81.4311377 44.3523573,87.1536926 53.6873449,87.1536926 C60.2878412,87.1536926 63.6823821,85.8403194 66.2282878,84.6207585 L67.3598015,88.0918164 C65.662531,89.0299401 61.0421836,91 53.1215881,91 C40.1091811,91 32,81.6187625 32,68.3912176 C32,53.3812375 40.674938,44 52.3672457,44 Z M51.8014888,47.752495 C41.8064516,47.752495 37.5632754,56.5708583 36.7146402,63.5129741 L65.2853598,63.5129741 C65.3796526,57.2275449 62.7394541,47.752495 51.8014888,47.752495 Z" id="e" fill="#000000"></path>
            <path d="M7.91729323,36.6912752 L12.6090226,35 L12.6090226,44.9597315 L26,44.9597315 L26,48.6241611 L12.6090226,48.6241611 L12.6090226,77.9395973 C12.6090226,83.6711409 14.4661654,87.2416107 19.4511278,87.2416107 C21.8947368,87.2416107 23.6541353,86.9597315 24.8270677,86.5838926 L25.4135338,89.966443 C23.8496241,90.5302013 21.6992481,91 18.8646617,91 C15.443609,91 12.6090226,89.966443 10.8496241,87.8993289 C8.69924812,85.5503356 7.91729323,81.6979866 7.91729323,77.0939597 L7.91729323,48.6241611 L0,48.6241611 L0,44.9597315 L7.91729323,44.9597315 L7.91729323,36.6912752 Z" id="t" fill="#000000"></path>
        </g>
    </g>
</svg>